P3
# Created by GIMP version 2.10.20 PNM plug-in
4 4

255

255
101
90
58
103
92
62
110
95
66
104
91
59
104
91
59
104
93
63
108
94
65
100
86
57
103
90
56
105
91
64
101
89
63
103
91
65
106
92
66
103
86
66
105
91
66
105
91