P3
# Created by GIMP version 2.10.20 PNM plug-in
3 2
255
255
101
90
58
103
92
62
110
95
66
104
91
59
104
35
46
0
185