P3

# Created by GIMP version 2.10.20 PNM plug-in
2 2
255

255
1
16
4
8
100
4
45
35
65
75
107